:FULLY-SPECIFIED
:FORCE-ALL-JOINTS-BE-3DOF
:DEGREES
146
root 8.68382 16.366 -16.674 6.75125 9.21557 2.25525
lfemur 7.70475 4.51765 -19.7443
ltibia 31.5151 -0 0
lfoot -4.93948 6.74172 0.589307
ltoes -10.3227 0 0
rfemur -36.6434 6.5435 14.6265
rtibia 27.1818 -0 0
rfoot -18.257 -5.82957 0.383135
rtoes -18.8304 0 0
lowerback -6.4197 -2.92859 -3.36241
upperback -1.48713 -3.73168 2.84144
thorax 2.48441 -1.90077 4.45886
lowerneck -19.0389 -6.49031 -14.0769
upperneck 17.6916 -7.80971 12.9406
head 9.87491 -3.22273 5.79242
lclavicle -2.54444e-14 2.3059e-14 0
lhumerus -38.3079 -19.7427 98.0241
lradius 33.7694 -0 0
lwrist 7.37689 0 0
lhand -4.79892 -20.941 0.125739
lfingers 7.12502 -0 0
lthumb 20.9803 7.87004 0.0999196
rclavicle -2.54444e-14 2.3059e-14 0
rhumerus -46.8746 7.91057 -81.9025
rradius 32.8233 -0 0
rwrist -17.9094 0 0
rhand -28.5743 -24.9592 -0.0200495
rfingers 7.12502 -0 0
rthumb -1.94055 -54.9322 -0.0191711
147
root 8.65939 16.382 -16.5214 6.81088 9.27396 2.05574
lfemur 6.89187 4.7644 -19.3335
ltibia 33.4071 -0 0
lfoot -4.37855 7.17991 0.578543
ltoes -10.5084 0 0
rfemur -36.1827 6.19333 15.2473
rtibia 27.4585 -0 0
rfoot -17.883 -5.40902 0.378172
rtoes -18.5967 0 0
lowerback -6.28846 -2.86286 -3.17
upperback -1.50474 -3.66067 2.88531
thorax 2.37614 -1.86172 4.40881
lowerneck -19.0271 -6.54246 -14.1107
upperneck 17.4849 -7.88081 13.0529
head 9.81799 -3.24663 5.82225
lclavicle -2.54444e-14 2.3059e-14 0
lhumerus -38.764 -19.2932 98.0029
lradius 33.2911 -0 0
lwrist 7.14472 0 0
lhand -4.45705 -20.7512 0.121354
lfingers 7.12502 -0 0
lthumb 21.3088 8.02574 0.0965152
rclavicle -2.54444e-14 2.3059e-14 0
rhumerus -46.8259 8.01258 -81.8871
rradius 32.8433 -0 0
rwrist -17.9274 0 0
rhand -28.5237 -25.0553 -0.020066
rfingers 7.12502 -0 0
rthumb -1.8917 -55.0289 -0.0191756
148
root 8.63496 16.398 -16.3688 6.86936 9.32621 1.85569
lfemur 6.06582 5.0131 -18.9305
ltibia 35.2788 -0 0
lfoot -3.82824 7.61617 0.563156
ltoes -10.6931 0 0
rfemur -35.7143 5.8415 15.8656
rtibia 27.7338 -0 0
rfoot -17.512 -4.98994 0.370317
rtoes -18.3602 0 0
lowerback -6.15789 -2.79611 -2.97734
upperback -1.52186 -3.58769 2.92891
thorax 2.2687 -1.82181 4.35851
lowerneck -19.0152 -6.59374 -14.1439
upperneck 17.2793 -7.95051 13.1649
head 9.76128 -3.27006 5.85203
lclavicle -2.54444e-14 2.3059e-14 0
lhumerus -39.2165 -18.8434 97.9755
lradius 32.8137 -0 0
lwrist 6.91423 0 0
lhand -4.12184 -20.5645 0.115929
lfingers 7.12502 -0 0
lthumb 21.631 8.17892 0.092285
rclavicle -2.54444e-14 2.3059e-14 0
rhumerus -46.7731 8.11587 -81.8729
rradius 32.8712 -0 0
rwrist -17.9492 0 0
rhand -28.4756 -25.1516 -0.0199389
rfingers 7.12502 -0 0
rthumb -1.84523 -55.1258 -0.0190423
149
root 8.61053 16.414 -16.2163 6.92658 9.37236 1.65564
lfemur 5.22871 5.26257 -18.5366
ltibia 37.1227 -0 0
lfoot -3.29083 8.04882 0.543367
ltoes -10.8764 0 0
rfemur -35.2387 5.48953 16.4794
rtibia 28.0052 -0 0
rfoot -17.1455 -4.57344 0.359662
rtoes -18.1219 0 0
lowerback -6.02854 -2.72847 -2.78499
upperback -1.53841 -3.51289 2.97208
thorax 2.16255 -1.78111 4.30808
lowerneck -19.0029 -6.64402 -14.1764
upperneck 17.0755 -8.01865 13.2764
head 9.70491 -3.29298 5.88167
lclavicle -2.54444e-14 2.3059e-14 0
lhumerus -39.6646 -18.3951 97.9425
lradius 32.3389 -0 0
lwrist 6.68655 0 0
lhand -3.79471 -20.3819 0.109558
lfingers 7.12502 -0 0
lthumb 21.9454 8.32893 0.0873008
rclavicle -2.54444e-14 2.3059e-14 0
rhumerus -46.7162 8.21998 -81.8596
rradius 32.9075 -0 0
rwrist -17.9748 0 0
rhand -28.4302 -25.248 -0.0196681
rfingers 7.12502 -0 0
rthumb -1.80143 -55.2227 -0.0187716
150
root 8.5861 16.4299 -16.0637 6.98242 9.41239 1.45615
lfemur 4.3826 5.51161 -18.153
ltibia 38.9312 -0 0
lfoot -2.76857 8.47622 0.519462
ltoes -11.0581 0 0
rfemur -34.7569 5.13901 17.0868
rtibia 28.2699 -0 0
rfoot -16.7852 -4.16061 0.346331
rtoes -17.8824 0 0
lowerback -5.90096 -2.66007 -2.5935
upperback -1.55427 -3.4364 3.01467
thorax 2.05814 -1.7397 4.25764
lowerneck -18.9901 -6.69319 -14.2082
upperneck 16.874 -8.08509 13.3869
head 9.64907 -3.31535 5.91107
lclavicle -2.54444e-14 2.3059e-14 0
lhumerus -40.1073 -17.9498 97.9044
lradius 31.8688 -0 0
lwrist 6.46283 0 0
lhand -3.47712 -20.204 0.102348
lfingers 7.12502 -0 0
lthumb 22.2507 8.47513 0.0816478
rclavicle -2.54444e-14 2.3059e-14 0
rhumerus -46.6549 8.32446 -81.8472
rradius 32.9525 -0 0
rwrist -18.0045 0 0
rhand -28.3879 -25.3442 -0.019255
rfingers 7.12502 -0 0
rthumb -1.76058 -55.3194 -0.0183651
151
root 8.56167 16.4459 -15.9111 7.03677 9.44631 1.25777
lfemur 3.52954 5.75892 -17.7811
ltibia 40.6968 -0 0
lfoot -2.26369 8.8967 0.491783
ltoes -11.238 0 0
rfemur -34.2695 4.79157 17.6856
rtibia 28.5253 -0 0
rfoot -16.4325 -3.75257 0.330485
rtoes -17.6427 0 0
lowerback -5.7757 -2.59102 -2.4034
upperback -1.56936 -3.35836 3.05655
thorax 1.95594 -1.69766 4.20732
lowerneck -18.9767 -6.74111 -14.2393
upperneck 16.6756 -8.14969 13.4963
head 9.5939 -3.33715 5.94015
lclavicle -2.54444e-14 2.3059e-14 0
lhumerus -40.5436 -17.5092 97.8618
lradius 31.4051 -0 0
lwrist 6.24419 0 0
lhand -3.17049 -20.0316 0.0944252
lfingers 7.12502 -0 0
lthumb 22.5454 8.61687 0.0754232
rclavicle -2.54444e-14 2.3059e-14 0
rhumerus -46.5893 8.42884 -81.8355
rradius 33.0066 -0 0
rwrist -18.0383 0 0
rhand -28.3489 -25.4401 -0.0187021
rfingers 7.12502 -0 0
rthumb -1.72296 -55.4158 -0.0178254
152
root 8.53724 16.4619 -15.7586 7.08951 9.47413 1.06105
lfemur 2.67156 6.00314 -17.422
ltibia 42.412 -0 0
lfoot -1.77845 9.30862 0.46073
ltoes -11.4159 0 0
rfemur -33.7771 4.4489 18.2742
rtibia 28.7689 -0 0
rfoot -16.0889 -3.35042 0.312317
rtoes -17.4035 0 0
lowerback -5.65332 -2.52144 -2.21527
upperback -1.58357 -3.2789 3.09756
thorax 1.85641 -1.65507 4.15722
lowerneck -18.9626 -6.78765 -14.2695
upperneck 16.4809 -8.21232 13.604
head 9.53956 -3.35833 5.96883
lclavicle -2.54444e-14 2.3059e-14 0
lhumerus -40.9728 -17.075 97.8152
lradius 30.9497 -0 0
lwrist 6.03177 0 0
lhand -2.87624 -19.8656 0.0859279
lfingers 7.12502 -0 0
lthumb 22.8282 8.7535 0.0687354
rclavicle -2.54444e-14 2.3059e-14 0
rhumerus -46.5193 8.53267 -81.8242
rradius 33.0701 -0 0
rwrist -18.0764 0 0
rhand -28.3136 -25.5355 -0.0180131
rfingers 7.12502 -0 0
rthumb -1.68885 -55.5115 -0.0171564
153
root 8.51281 16.4779 -15.606 7.14053 9.49583 0.866547
lfemur 1.81068 6.24285 -17.0767
ltibia 44.0692 -0 0
lfoot -1.31508 9.71034 0.426757
ltoes -11.5916 0 0
rfemur -33.2803 4.11274 18.8505
rtibia 28.9979 -0 0
rfoot -15.7558 -2.95525 0.292051
rtoes -17.1658 0 0
lowerback -5.53438 -2.45144 -2.02964
upperback -1.59683 -3.19817 3.13757
thorax 1.76003 -1.61201 4.10749
lowerneck -18.9475 -6.8327 -14.2989
upperneck 16.2906 -8.27283 13.7097
head 9.48622 -3.37887 5.997
lclavicle -2.54444e-14 2.3059e-14 0
lhumerus -41.3937 -16.6486 97.7654
lradius 30.5045 -0 0
lwrist 5.8267 0 0
lhand -2.59582 -19.7066 0.0770075
lfingers 7.12502 -0 0
lthumb 23.0977 8.88438 0.0617031
rclavicle -2.54444e-14 2.3059e-14 0
rhumerus -46.4447 8.63549 -81.8132
rradius 33.1434 -0 0
rwrist -18.1188 0 0
rhand -28.2822 -25.6302 -0.017193
rfingers 7.12502 -0 0
rthumb -1.65854 -55.6065 -0.016363
154
root 8.48838 16.4938 -15.4534 7.18971 9.51143 0.674809
lfemur 0.948898 6.47657 -16.7464
ltibia 45.6609 -0 0
lfoot -0.875812 10.1002 0.39036
ltoes -11.7648 0 0
rfemur -32.7795 3.78487 19.4127
rtibia 29.2098 -0 0
rfoot -15.4349 -2.56816 0.269943
rtoes -16.9302 0 0
lowerback -5.41943 -2.38113 -1.84707
upperback -1.60903 -3.11629 3.17644
thorax 1.66724 -1.56854 4.05824
lowerneck -18.9314 -6.87613 -14.3275
upperneck 16.1054 -8.33112 13.8131
head 9.43404 -3.39872 6.02459
lclavicle -2.54444e-14 2.3059e-14 0
lhumerus -41.8056 -16.2318 97.7128
lradius 30.0714 -0 0
lwrist 5.63011 0 0
lhand -2.33066 -19.5556 0.0678261
lfingers 7.12502 -0 0
lthumb 23.3526 9.00888 0.0544532
rclavicle -2.54444e-14 2.3059e-14 0
rhumerus -46.3655 8.73684 -81.8023
rradius 33.227 -0 0
rwrist -18.1658 0 0
rhand -28.2551 -25.724 -0.0162476
rfingers 7.12502 -0 0
rthumb -1.6323 -55.7006 -0.0154512
155
root 8.46394 16.5098 -15.3009 7.23694 9.52092 0.486391
lfemur 0.088191 6.70274 -16.4321
ltibia 47.1795 -0 0
lfoot -0.462854 10.4767 0.35208
ltoes -11.9354 0 0
rfemur -32.2754 3.46713 19.9592
rtibia 29.402 -0 0
rfoot -15.1275 -2.19024 0.246274
rtoes -16.6977 0 0
lowerback -5.30903 -2.31059 -1.66813
upperback -1.62007 -3.03342 3.21401
thorax 1.57852 -1.52474 4.00959
lowerneck -18.914 -6.91781 -14.355
upperneck 15.9259 -8.38704 13.9138
head 9.38317 -3.41787 6.05149
lclavicle -2.54444e-14 2.3059e-14 0
lhumerus -42.2075 -15.8261 97.6584
lradius 29.6522 -0 0
lwrist 5.44314 0 0
lhand -2.08217 -19.4133 0.0585547
lfingers 7.12502 -0 0
lthumb 23.5915 9.12634 0.0471201
rclavicle -2.54444e-14 2.3059e-14 0
rhumerus -46.2815 8.83626 -81.7913
rradius 33.321 -0 0
rwrist -18.2174 0 0
rhand -28.2324 -25.8168 -0.0151837
rfingers 7.12502 -0 0
rthumb -1.61042 -55.7934 -0.0144279
156
root 8.43951 16.5258 -15.1483 7.2821 9.52428 0.301845
lfemur -0.76946 6.91979 -16.1347
ltibia 48.6176 -0 0
lfoot -0.0784209 10.8382 0.312493
ltoes -12.103 0 0
rfemur -31.7682 3.16139 20.488
rtibia 29.5718 -0 0
rfoot -14.8353 -1.82256 0.221352
rtoes -16.4691 0 0
lowerback -5.20375 -2.23994 -1.49338
upperback -1.62987 -2.94967 3.25016
thorax 1.49433 -1.48068 3.96168
lowerneck -18.8954 -6.95761 -14.3816
upperneck 15.7527 -8.44049 14.0114
head 9.33377 -3.43626 6.07764
lclavicle -2.54444e-14 2.3059e-14 0
lhumerus -42.5984 -15.4331 97.6027
lradius 29.2488 -0 0
lwrist 5.26692 0 0
lhand -1.85179 -19.2805 0.049371
lfingers 7.12502 -0 0
lthumb 23.8129 9.23614 0.0398431
rclavicle -2.54444e-14 2.3059e-14 0
rhumerus -46.1928 8.93329 -81.78
rradius 33.426 -0 0
rwrist -18.2738 0 0
rhand -28.2146 -25.9083 -0.0140091
rfingers 7.12502 -0 0
rthumb -1.59319 -55.885 -0.0133006
157
root 8.41508 16.5418 -14.9957 7.32507 9.52152 0.121728
lfemur -1.62208 7.12606 -15.8551
ltibia 49.9676 -0 0
lfoot 0.275286 11.183 0.2722
ltoes -12.2675 0 0
rfemur -31.2584 2.86958 20.9976
rtibia 29.7165 -0 0
rfoot -14.5595 -1.46621 0.195507
rtoes -16.2452 0 0
lowerback -5.10415 -2.16925 -1.32336
upperback -1.63834 -2.8652 3.28473
thorax 1.41513 -1.43644 3.91463
lowerneck -18.8753 -6.99541 -14.4072
upperneck 15.5866 -8.49135 14.1057
head 9.28601 -3.45387 6.10292
lclavicle -2.54444e-14 2.3059e-14 0
lhumerus -42.9774 -15.0543 97.5465
lradius 28.8631 -0 0
lwrist 5.10258 0 0
lhand -1.64095 -19.1578 0.0404571
lfingers 7.12502 -0 0
lthumb 24.0156 9.33762 0.0327657
rclavicle -2.54444e-14 2.3059e-14 0
rhumerus -46.0991 9.02747 -81.7683
rradius 33.5423 -0 0
rwrist -18.3351 0 0
rhand -28.2018 -25.9984 -0.0127321
rfingers 7.12502 -0 0
rthumb -1.58088 -55.9751 -0.0120778
158
root 8.39065 16.5578 -14.8432 7.36574 9.51263 -0.0534085
lfemur -2.46771 7.31987 -15.5941
ltibia 51.222 -0 0
lfoot 0.596072 11.5096 0.231829
ltoes -12.4287 0 0
rfemur -30.7463 2.59366 21.4861
rtibia 29.8337 -0 0
rfoot -14.3019 -1.12227 0.169089
rtoes -16.0268 0 0
lowerback -5.0108 -2.09862 -1.15866
upperback -1.64538 -2.78015 3.31758
thorax 1.34139 -1.39207 3.86856
lowerneck -18.8535 -7.03109 -14.4317
upperneck 15.4282 -8.5395 14.1961
head 9.24005 -3.47067 6.12726
lclavicle -2.54444e-14 2.3059e-14 0
lhumerus -43.3435 -14.6914 97.4906
lradius 28.4969 -0 0
lwrist 4.95126 0 0
lhand -1.45108 -19.0462 0.0319971
lfingers 7.12502 -0 0
lthumb 24.1981 9.43016 0.0260326
rclavicle -2.54444e-14 2.3059e-14 0
rhumerus -46.0005 9.11834 -81.756
rradius 33.6702 -0 0
rwrist -18.4014 0 0
rhand -28.1945 -26.0868 -0.0113621
rfingers 7.12502 -0 0
rthumb -1.57377 -56.0634 -0.0107685
